<svg xmlns="http://www.w3.org/2000/svg" width="36" height="36" viewBox="0 0 36 36">
  <g id="グループ_3" data-name="グループ 3" transform="translate(-11 -552)">
    <circle id="楕円形_1" data-name="楕円形 1" cx="18" cy="18" r="18" transform="translate(11 552)" fill="#e0470e"/>
    <g id="_i_icon_11334_icon_113340" transform="translate(18.075 561.449)">
      <path id="パス_4" data-name="パス 4" d="M10.925,55.625C4.892,55.625,0,57.591,0,60.016A10.927,10.927,0,0,0,6.533,70.022v.939c0,.975,1.966,1.766,4.391,1.766s4.391-.791,4.391-1.766v-.939a10.928,10.928,0,0,0,6.533-10.006C21.849,57.591,16.958,55.625,10.925,55.625Zm7.059,5.841a19.92,19.92,0,0,1-7.059,1.157,19.924,19.924,0,0,1-7.059-1.157c-1.7-.683-2.08-1.354-2.08-1.45s.383-.767,2.08-1.448a19.892,19.892,0,0,1,7.059-1.158,19.888,19.888,0,0,1,7.059,1.158c1.7.681,2.08,1.354,2.08,1.448S19.681,60.783,17.984,61.466Z" transform="translate(0 -55.625)" fill="#fff"/>
    </g>
  </g>
</svg>
