<svg xmlns="http://www.w3.org/2000/svg" width="49" height="49.547" viewBox="0 0 49 49.547">
  <g id="_i_icon_11337_icon_113370" transform="translate(344.408 171.199)">
    <g id="グループ_2" data-name="グループ 2" transform="translate(-344.408 -171.199)">
      <g id="グループ_1" data-name="グループ 1" transform="translate(0)">
        <path id="パス_2" data-name="パス 2" d="M137.484.925V3.9h35.969V0Z" transform="translate(-124.453)" fill="#4b4b4b"/>
        <path id="パス_3" data-name="パス 3" d="M33.208,47.613a1.394,1.394,0,0,0-2.788,0V48.3H28.08v-.688a1.394,1.394,0,0,0-2.788,0V48.3H22.952v-.688a1.394,1.394,0,0,0-2.788,0V48.3h-4.3v2.98l4.3.109V62.616H2.828V64.21A22.725,22.725,0,0,0,17.167,85.321v5.973H33.895V85.321A22.725,22.725,0,0,0,48.234,64.209V62.616H33.208V51.726l18.62.478V48.3H33.208Zm-10.256,3.85,2.339.06V62.616H22.952Zm8.155,37.043H19.955V85.811a22.459,22.459,0,0,0,11.151,0Zm8.507-10.214A19.914,19.914,0,0,1,5.652,65.4H45.409A19.836,19.836,0,0,1,39.614,78.291ZM30.42,62.616H28.079V51.594l2.341.06Z" transform="translate(-2.828 -41.746)" fill="#4b4b4b"/>
      </g>
    </g>
  </g>
</svg>
