<svg xmlns="http://www.w3.org/2000/svg" width="48" height="38.561" viewBox="0 0 48 38.561">
  <path id="パス_5" data-name="パス 5" d="M47.99,63.743l-.049-.722a3.719,3.719,0,0,0-3.475-3.47l2.324-4.46a2.842,2.842,0,0,0-1.206-3.835l-1.133-.591a2.842,2.842,0,0,0-3.834,1.206l-3.992,7.658H3.941l-.14,0A3.751,3.751,0,0,0,.06,63.02L0,63.888l.016.145A24.133,24.133,0,0,0,13.544,83.1l-.157,1.2c-.034.229-.072.463-.1.709a6.5,6.5,0,0,0-.058.805,3.286,3.286,0,0,0,.214,1.216,2.639,2.639,0,0,0,.635.94,2.873,2.873,0,0,0,.7.485,4.09,4.09,0,0,0,1.162.356,8.121,8.121,0,0,0,1.308.092H30.274a7.556,7.556,0,0,0,1.531-.134,3.781,3.781,0,0,0,1.021-.357,2.809,2.809,0,0,0,.69-.512,2.663,2.663,0,0,0,.639-1.077,3.377,3.377,0,0,0,.14-1.01,6.356,6.356,0,0,0-.058-.805c-.03-.246-.067-.48-.1-.709l-.128-.984A24.142,24.142,0,0,0,47.984,64.033L48,63.888ZM30.274,85.652H17.247a5.179,5.179,0,0,1-.758-.047c.005-.057.012-.12.021-.192.022-.179.057-.4.094-.646l0-.016.261-2H30.654l.261,2,0,.016c.037.248.072.467.094.646.01.072.016.135.021.192A5.255,5.255,0,0,1,30.274,85.652Zm10.248-11.53a20.935,20.935,0,0,1-8.882,6.67l-1.109.436H17.066l.017-.133-1.145-.479A20.763,20.763,0,0,1,5.516,71.047H7.052a.153.153,0,0,0,.153-.153V67.424h2.851V69.9h-.79V68.451a.153.153,0,0,0-.154-.153h-1a.153.153,0,0,0-.154.153v2.443a.153.153,0,0,0,.154.153h3.09a.153.153,0,0,0,.153-.153V66.428a.153.153,0,0,0-.153-.153H6.056a.153.153,0,0,0-.153.153V69.9H4.957c-.13-.289-.258-.579-.375-.874h.41a.153.153,0,0,0,.153-.153V66.428a.153.153,0,0,0-.153-.153H3.713a20.833,20.833,0,0,1-.449-2.468l.039-.565a.5.5,0,0,1,.5-.467h.034l.051,0H44.114l.051,0H44.2a.5.5,0,0,1,.5.467l.039.564a20.86,20.86,0,0,1-.45,2.469H40.947a.153.153,0,0,0-.152.153V69.9H37.942V67.424h.792v1.449a.153.153,0,0,0,.154.153h1a.153.153,0,0,0,.152-.153V66.428a.153.153,0,0,0-.152-.153h-3.09a.153.153,0,0,0-.154.153v4.466a.153.153,0,0,0,.154.153h5.149a.153.153,0,0,0,.154-.153V67.424H43.97c-.089.294-.181.586-.283.875h-.68a.153.153,0,0,0-.152.153v1.862A20.907,20.907,0,0,1,40.522,74.122Z" transform="translate(0 -50.342)" fill="#2bad62"/>
</svg>
