<svg id="clock" xmlns="http://www.w3.org/2000/svg" width="25" height="25" viewBox="0 0 25 25">
  <path id="パス_16" data-name="パス 16" d="M12.5,23.438A10.938,10.938,0,1,0,1.563,12.5,10.938,10.938,0,0,0,12.5,23.438ZM25,12.5A12.5,12.5,0,1,1,12.5,0,12.5,12.5,0,0,1,25,12.5Z" fill="#e0470e" fill-rule="evenodd"/>
  <path id="パス_17" data-name="パス 17" d="M16.531,6.75a.781.781,0,0,1,.781.781v8.141l5.075,2.9a.781.781,0,0,1-.775,1.356L16.144,16.8a.781.781,0,0,1-.394-.678V7.531A.781.781,0,0,1,16.531,6.75Z" transform="translate(-4.812 -2.062)" fill="#e0470e" fill-rule="evenodd"/>
</svg>
