<svg xmlns="http://www.w3.org/2000/svg" width="20" height="19.997" viewBox="0 0 20 19.997">
  <path id="genderless" d="M17.778,13.6A7.49,7.49,0,0,0,15.5,8.1,7.488,7.488,0,0,0,10,5.822,7.5,7.5,0,0,0,4.5,8.1,7.488,7.488,0,0,0,2.222,13.6,7.488,7.488,0,0,0,4.5,19.092,7.5,7.5,0,0,0,10,21.375a7.488,7.488,0,0,0,5.5-2.282A7.49,7.49,0,0,0,17.778,13.6ZM20,13.6a9.769,9.769,0,0,1-.79,3.88,9.854,9.854,0,0,1-5.33,5.329,9.924,9.924,0,0,1-7.76,0A9.854,9.854,0,0,1,.79,17.478a9.92,9.92,0,0,1,0-7.759A9.855,9.855,0,0,1,6.12,4.39a9.924,9.924,0,0,1,7.76,0,9.854,9.854,0,0,1,5.33,5.329A9.769,9.769,0,0,1,20,13.6Z" transform="translate(0 -3.6)" fill="#2bad62"/>
</svg>
