<svg xmlns="http://www.w3.org/2000/svg" width="24" height="24" viewBox="0 0 24 24">
  <g id="settings-line" transform="translate(-2 -2)">
    <path id="パス_18" data-name="パス 18" d="M17.1,11a6,6,0,1,0,6,6A5.963,5.963,0,0,0,17.1,11Zm0,10.286A4.286,4.286,0,1,1,21.386,17,4.244,4.244,0,0,1,17.1,21.286Z" transform="translate(-3.033 -3)" fill="#e0470e"/>
    <path id="パス_19" data-name="パス 19" d="M25.1,11.525,23,10.85l-.45-1.125,1.05-1.95a1.261,1.261,0,0,0-.225-1.425l-1.8-1.8a1.261,1.261,0,0,0-1.425-.225L18.2,5.375l-1.125-.45-.675-2.1A1.219,1.219,0,0,0,15.275,2h-2.55a1.052,1.052,0,0,0-1.05.9L11,5a3.314,3.314,0,0,0-1.2.45L7.85,4.4a1.261,1.261,0,0,0-1.425.225l-1.8,1.8A1.261,1.261,0,0,0,4.4,7.85l.975,1.875c-.15.375-.3.825-.45,1.2l-2.1.675A1.219,1.219,0,0,0,2,12.725v2.55A1.194,1.194,0,0,0,2.9,16.4l2.1.675L5.45,18.2,4.4,20.15a1.261,1.261,0,0,0,.225,1.425l1.8,1.8A1.261,1.261,0,0,0,7.85,23.6L9.8,22.55l1.125.45.675,2.175A1.219,1.219,0,0,0,12.725,26h2.55a1.219,1.219,0,0,0,1.125-.825L17.075,23l1.125-.45,1.95,1.05a1.261,1.261,0,0,0,1.425-.225l1.8-1.8A1.261,1.261,0,0,0,23.6,20.15L22.55,18.2,23,17.075l2.175-.675A1.219,1.219,0,0,0,26,15.275v-2.55a1.284,1.284,0,0,0-.9-1.2Zm-.6,3.525-2.7.825-.075.375-.675,1.575-.225.375,1.35,2.475-1.5,1.5L18.2,20.825l-.375.225a7.12,7.12,0,0,1-1.575.675l-.375.075-.825,2.7h-2.1l-.825-2.7-.375-.075-1.575-.675L9.8,20.825l-2.475,1.35-1.5-1.5L7.175,18.2l-.225-.375a7.12,7.12,0,0,1-.675-1.575L6.2,15.875,3.5,15.05v-2.1l2.55-.75.15-.375a6.366,6.366,0,0,1,.675-1.65L7.1,9.8,5.825,7.325l1.5-1.5,2.4,1.35L10.1,6.95a6.366,6.366,0,0,1,1.65-.675l.375-.15L12.95,3.5h2.1l.825,2.625.375.15a7.12,7.12,0,0,1,1.575.675l.375.225,2.475-1.35,1.5,1.5L20.825,9.8l.225.375a7.12,7.12,0,0,1,.675,1.575l.075.375,2.7.825Z" transform="translate(0 0)" fill="#e0470e"/>
  </g>
</svg>
