<svg id="_i_icon_01789_icon_017890" xmlns="http://www.w3.org/2000/svg" width="36" height="36" viewBox="0 0 36 36">
  <path id="パス_1" data-name="パス 1" d="M18,0A18,18,0,1,0,36,18,18,18,0,0,0,18,0Zm.41,15.659h.012a3.759,3.759,0,0,1-.1-.878,3.852,3.852,0,0,1,6.666-2.633,7.692,7.692,0,0,0,2.035-.716c.137-.068.274-.136.407-.212a3.842,3.842,0,0,1-1.235,1.791,3.578,3.578,0,0,1-.455.318l.021,0c-.007,0-.013.01-.02.014a7.653,7.653,0,0,0,1.808-.442c.131-.046.263-.094.393-.146a7.8,7.8,0,0,1-1.914,1.978c.011.169.011.332.011.5A10.956,10.956,0,0,1,9.169,24.463a8.274,8.274,0,0,0,.923.056,7.7,7.7,0,0,0,3.636-.91c.023-.012.047-.023.07-.035.069-.038.135-.081.2-.12a8.062,8.062,0,0,0,.872-.577h-.013l.014-.01A3.809,3.809,0,0,1,11.28,20.2a3.709,3.709,0,0,0,1.46-.012c.091-.015.184-.026.274-.045l-.021-.006.023,0a3.856,3.856,0,0,1-3.094-3.78V16.3a3.857,3.857,0,0,0,1.347.442c.131.02.263.037.4.045l-.015-.011.021,0a3.827,3.827,0,0,1-1.317-4.892c.042-.082.079-.166.128-.245A10.918,10.918,0,0,0,18.3,15.651c.037,0,.074.01.112.012Z" fill="#e0470e"/>
</svg>
