<svg xmlns="http://www.w3.org/2000/svg" width="26.399" height="10.226" viewBox="0 0 26.399 10.226">
  <g id="グループ_19" data-name="グループ 19" transform="translate(-163.279 -376.409)">
    <path id="arrow-ios-back-fill" d="M16.252,17.724a.73.73,0,0,1-.57-.27l-3.528-4.382a.73.73,0,0,1,0-.928l3.652-4.382a.731.731,0,1,1,1.125.935l-3.265,3.915,3.155,3.915a.73.73,0,0,1-.57,1.2Z" transform="translate(151.29 368.911)" fill="#e0470e"/>
    <path id="arrow-ios-back-fill-2" data-name="arrow-ios-back-fill" d="M4.263,10.226a.73.73,0,0,1-.57-.27L.166,5.573a.73.73,0,0,1,0-.928L3.818.264A.731.731,0,1,1,4.943,1.2L1.678,5.113,4.833,9.028a.73.73,0,0,1-.57,1.2Z" transform="translate(189.677 386.635) rotate(180)" fill="#e0470e"/>
    <line id="線_4" data-name="線 4" x2="24.957" transform="translate(163.999 381.535)" fill="none" stroke="#e0470e" stroke-width="1.5"/>
  </g>
</svg>
